<?xml version="1.0" encoding="utf-8"?>
<!-- Generator: Adobe Illustrator 16.0.0, SVG Export Plug-In . SVG Version: 6.00 Build 0)  -->
<!DOCTYPE svg PUBLIC "-//W3C//DTD SVG 1.1//EN" "http://www.w3.org/Graphics/SVG/1.1/DTD/svg11.dtd">
<svg version="1.1" id="Layer_1" xmlns="http://www.w3.org/2000/svg" xmlns:xlink="http://www.w3.org/1999/xlink" x="0px" y="0px"
	 width="565.926px" height="565.926px" viewBox="719.768 -12.221 565.926 565.926"
	 enable-background="new 719.768 -12.221 565.926 565.926" xml:space="preserve">
<g>
	<circle fill="#333333" cx="1003.407" cy="270.421" r="282.641"/>
	<g>
		<path fill="#D6D6D8" d="M1048.573,163.026c9.66-11.677,16.45-27.536,16.111-43.689c-0.059-2.713-2.533-4.727-5.217-4.317
			c-14.173,2.165-30.019,11.043-39.827,22.525c-9.038,10.452-17.062,26.695-16.457,42.789c0.09,2.425,2.138,4.359,4.565,4.291
			C1023.394,184.181,1038.839,174.813,1048.573,163.026"/>
		<path fill="#C2C2C4" d="M1015.39,180.334c-0.936-24.953,17.891-54.097,48.448-63.493c-0.959-1.319-2.616-2.088-4.367-1.821
			c-14.176,2.165-30.021,11.043-39.829,22.525c-9.039,10.452-17.063,26.695-16.457,42.789c0.089,2.425,2.139,4.359,4.564,4.291
			c3.034-0.086,6.06-0.511,9.037-1.221C1015.966,182.627,1015.435,181.542,1015.39,180.334z"/>
		<path fill="#D6D6D8" d="M1124.082,335.759c-9.821-4.944-36.926-22.01-37.261-59.854c-0.287-30.978,20.27-48.991,29.015-55.281
			c2.074-1.495,2.529-4.417,0.953-6.428c-7.266-9.263-15.761-15.205-23.923-19.056c0.005,0,0.012-0.002,0.016-0.003
			c-1.057-0.499-2.867-1.292-4.314-1.862l0,0c-41.066-16.165-66.945,8.612-82.622,8.612c-12.003,0-30.524-13.562-50.148-13.191
			c-25.788,0.374-49.539,15.001-62.837,38.081c-20.4,35.411-13.673,83.818,2.222,121.542c0,0.002,0,0.002,0,0.002
			c0.406,0.965,1.054,2.467,1.595,3.68c0-0.002,0-0.002,0.001-0.004c4.605,10.34,9.877,19.79,15.431,27.824
			c12.752,18.433,27.967,39.197,47.955,38.436c19.24-0.765,26.514-12.439,49.764-12.439c23.236,0,29.791,12.439,50.135,12.068
			c20.708-0.394,33.822-18.811,46.486-37.332c11.148-16.272,17.298-32.156,19.763-39.308
			C1127.045,339.115,1126.098,336.773,1124.082,335.759z"/>
		<path fill="#C2C2C4" d="M924.414,379.822c-5.554-8.032-10.825-17.482-15.43-27.824c0,0.002,0,0.002-0.002,0.004
			c-0.539-1.213-1.182-2.702-1.595-3.68l0,0c-15.797-37.492-22.694-86.009-2.221-121.544c12.281-21.314,33.479-35.41,56.962-37.737
			c-2.093-0.252-4.206-0.383-6.332-0.344c-25.786,0.375-49.539,15.001-62.835,38.081c-20.402,35.411-13.675,83.817,2.221,121.544
			h-0.001c0.407,0.965,1.056,2.467,1.595,3.68c0.001-0.002,0.002-0.002,0.002-0.004c4.605,10.342,9.876,19.792,15.43,27.824
			c12.752,18.434,27.967,39.197,47.955,38.436c1.968-0.078,3.804-0.275,5.551-0.557C948.944,414.3,935.712,396.151,924.414,379.822z
			"/>
	</g>
</g>
</svg>
